<mxfile host="Electron" modified="2023-11-05T21:50:53.325Z" agent="Mozilla/5.0 (Macintosh; Intel Mac OS X 10_15_7) AppleWebKit/537.36 (KHTML, like Gecko) draw.io/22.0.3 Chrome/114.0.5735.289 Electron/25.8.4 Safari/537.36" etag="uwpnUTrxhaSPacxn6dyP" version="22.0.3" type="device">
  <diagram name="Page-1" id="Pg85P4zRKXnsHfGjfudi">
    <mxGraphModel dx="1193" dy="1850" grid="1" gridSize="10" guides="1" tooltips="1" connect="1" arrows="1" fold="1" page="1" pageScale="1" pageWidth="850" pageHeight="1100" math="0" shadow="0">
      <root>
        <mxCell id="0" />
        <mxCell id="1" parent="0" />
        <mxCell id="2sfvVRf8cTNGD4TYgYCf-1" value="RNN" style="rounded=0;whiteSpace=wrap;html=1;fontSize=18;fontStyle=1;fillColor=#dae8fc;strokeColor=#6c8ebf;" parent="1" vertex="1">
          <mxGeometry x="40" y="-640" width="80" height="40" as="geometry" />
        </mxCell>
        <mxCell id="2sfvVRf8cTNGD4TYgYCf-84" value="MLP" style="rounded=0;whiteSpace=wrap;html=1;fontSize=18;fontStyle=1;fillColor=#ffe6cc;strokeColor=#d79b00;" parent="1" vertex="1">
          <mxGeometry x="40" y="-519" width="80" height="40" as="geometry" />
        </mxCell>
        <mxCell id="2sfvVRf8cTNGD4TYgYCf-89" value="&lt;h1&gt;&lt;font style=&quot;font-size: 17px;&quot;&gt;Dataset: SNP example&lt;/font&gt;&lt;/h1&gt;" style="text;html=1;strokeColor=none;fillColor=none;spacing=5;spacingTop=-20;whiteSpace=wrap;overflow=hidden;rounded=0;verticalAlign=middle;" parent="1" vertex="1">
          <mxGeometry x="130" y="-652.5" width="120" height="65" as="geometry" />
        </mxCell>
        <mxCell id="2sfvVRf8cTNGD4TYgYCf-92" value="Target" style="text;html=1;strokeColor=none;fillColor=none;align=center;verticalAlign=middle;whiteSpace=wrap;rounded=0;fontSize=17;fontStyle=3" parent="1" vertex="1">
          <mxGeometry x="300" y="-680" width="80" height="40" as="geometry" />
        </mxCell>
        <mxCell id="2sfvVRf8cTNGD4TYgYCf-93" value="Biomass:&amp;nbsp;61.0,&amp;nbsp;&lt;br&gt;68.75, ..." style="rounded=0;whiteSpace=wrap;html=1;fontSize=15;" parent="1" vertex="1">
          <mxGeometry x="280" y="-640" width="120" height="40" as="geometry" />
        </mxCell>
        <mxCell id="2sfvVRf8cTNGD4TYgYCf-97" value="Input Layer&lt;br&gt;[5000]" style="text;html=1;strokeColor=none;fillColor=none;align=center;verticalAlign=middle;whiteSpace=wrap;rounded=0;fontStyle=1;fontSize=14;" parent="1" vertex="1">
          <mxGeometry x="870" y="-610" width="90" height="30" as="geometry" />
        </mxCell>
        <mxCell id="2sfvVRf8cTNGD4TYgYCf-98" value="Hidden Layers&lt;br&gt;[128]" style="text;html=1;strokeColor=none;fillColor=none;align=center;verticalAlign=middle;whiteSpace=wrap;rounded=0;fontStyle=1;fontSize=14;" parent="1" vertex="1">
          <mxGeometry x="970" y="-610" width="110" height="30" as="geometry" />
        </mxCell>
        <mxCell id="2sfvVRf8cTNGD4TYgYCf-99" value="Output Layer&lt;br&gt;[1]" style="text;html=1;strokeColor=none;fillColor=none;align=center;verticalAlign=middle;whiteSpace=wrap;rounded=0;fontStyle=1;fontSize=14;" parent="1" vertex="1">
          <mxGeometry x="1095" y="-610" width="90" height="30" as="geometry" />
        </mxCell>
        <mxCell id="2sfvVRf8cTNGD4TYgYCf-101" value="" style="ellipse;whiteSpace=wrap;html=1;aspect=fixed;" parent="1" vertex="1">
          <mxGeometry x="905" y="-570" width="20" height="20" as="geometry" />
        </mxCell>
        <mxCell id="2sfvVRf8cTNGD4TYgYCf-104" value="" style="edgeStyle=orthogonalEdgeStyle;rounded=0;orthogonalLoop=1;jettySize=auto;html=1;" parent="1" source="2sfvVRf8cTNGD4TYgYCf-102" target="2sfvVRf8cTNGD4TYgYCf-101" edge="1">
          <mxGeometry relative="1" as="geometry" />
        </mxCell>
        <mxCell id="2sfvVRf8cTNGD4TYgYCf-102" value="&lt;font style=&quot;font-size: 13px;&quot;&gt;RNN&lt;/font&gt;" style="rounded=1;whiteSpace=wrap;html=1;" parent="1" vertex="1">
          <mxGeometry x="950" y="-570" width="60" height="20" as="geometry" />
        </mxCell>
        <mxCell id="2sfvVRf8cTNGD4TYgYCf-103" value="&lt;font style=&quot;font-size: 13px;&quot;&gt;lstm_ ...&lt;/font&gt;" style="rounded=1;whiteSpace=wrap;html=1;fontSize=12;" parent="1" vertex="1">
          <mxGeometry x="1010" y="-570" width="80" height="20" as="geometry" />
        </mxCell>
        <mxCell id="2sfvVRf8cTNGD4TYgYCf-105" value="" style="ellipse;whiteSpace=wrap;html=1;aspect=fixed;" parent="1" vertex="1">
          <mxGeometry x="1130" y="-570" width="20" height="20" as="geometry" />
        </mxCell>
        <mxCell id="W41b2BSTpt1RBGvLtV3H-1" value="Biomass:&amp;nbsp;61.0,&amp;nbsp;&lt;br&gt;68.75, ..." style="rounded=0;whiteSpace=wrap;html=1;fontSize=15;" parent="1" vertex="1">
          <mxGeometry x="280" y="-519" width="120" height="40" as="geometry" />
        </mxCell>
        <mxCell id="W41b2BSTpt1RBGvLtV3H-2" value="&lt;h1&gt;&lt;font style=&quot;font-size: 17px;&quot;&gt;Dataset: SNP example&lt;/font&gt;&lt;/h1&gt;" style="text;html=1;strokeColor=none;fillColor=none;spacing=5;spacingTop=-20;whiteSpace=wrap;overflow=hidden;rounded=0;verticalAlign=middle;" parent="1" vertex="1">
          <mxGeometry x="130" y="-537.5" width="120" height="65" as="geometry" />
        </mxCell>
        <mxCell id="W41b2BSTpt1RBGvLtV3H-3" value="CNN" style="rounded=0;whiteSpace=wrap;html=1;fontSize=18;fontStyle=1;fillColor=#d5e8d4;strokeColor=#82b366;" parent="1" vertex="1">
          <mxGeometry x="40" y="-400" width="80" height="40" as="geometry" />
        </mxCell>
        <mxCell id="W41b2BSTpt1RBGvLtV3H-4" value="&lt;h1&gt;&lt;font style=&quot;font-size: 17px;&quot;&gt;Dataset: SNP example&lt;/font&gt;&lt;/h1&gt;" style="text;html=1;strokeColor=none;fillColor=none;spacing=5;spacingTop=-20;whiteSpace=wrap;overflow=hidden;rounded=0;verticalAlign=middle;" parent="1" vertex="1">
          <mxGeometry x="130" y="-412.5" width="120" height="65" as="geometry" />
        </mxCell>
        <mxCell id="W41b2BSTpt1RBGvLtV3H-6" value="Dataset: outline" style="text;html=1;strokeColor=none;fillColor=none;align=center;verticalAlign=middle;whiteSpace=wrap;rounded=0;fontSize=17;fontStyle=3" parent="1" vertex="1">
          <mxGeometry x="481.11" y="-720" width="170" height="40" as="geometry" />
        </mxCell>
        <mxCell id="W41b2BSTpt1RBGvLtV3H-7" value="&lt;font style=&quot;font-size: 18px;&quot;&gt;[ &lt;/font&gt;&lt;font style=&quot;font-size: 14px;&quot;&gt;[0 1 0 0]&lt;/font&gt;&lt;font style=&quot;font-size: 18px;&quot;&gt; &lt;/font&gt;&lt;font style=&quot;font-size: 14px;&quot;&gt;[1 0 0 0] ... [0 0 0 1] ...&lt;/font&gt;&lt;font style=&quot;font-size: 18px;&quot;&gt; ]&lt;/font&gt;" style="rounded=0;whiteSpace=wrap;html=1;align=left;" parent="1" vertex="1">
          <mxGeometry x="521.11" y="-610" width="218.89" height="30" as="geometry" />
        </mxCell>
        <mxCell id="W41b2BSTpt1RBGvLtV3H-8" value="sample_id_1" style="text;html=1;strokeColor=none;fillColor=none;align=center;verticalAlign=middle;whiteSpace=wrap;rounded=0;" parent="1" vertex="1">
          <mxGeometry x="440" y="-610" width="78.89" height="30" as="geometry" />
        </mxCell>
        <mxCell id="W41b2BSTpt1RBGvLtV3H-11" value="&lt;font style=&quot;font-size: 18px;&quot;&gt;[ &lt;/font&gt;&lt;font style=&quot;font-size: 14px;&quot;&gt;[0 1 0 0]&lt;/font&gt;&lt;font style=&quot;font-size: 18px;&quot;&gt; &lt;/font&gt;&lt;font style=&quot;font-size: 14px;&quot;&gt;[1 0 0 0] ... [0 0 0 1] ...&lt;/font&gt;&lt;font style=&quot;font-size: 18px;&quot;&gt; ]&lt;/font&gt;" style="rounded=0;whiteSpace=wrap;html=1;align=left;" parent="1" vertex="1">
          <mxGeometry x="521.11" y="-570" width="218.89" height="30" as="geometry" />
        </mxCell>
        <mxCell id="W41b2BSTpt1RBGvLtV3H-12" value="sample_id_2" style="text;html=1;strokeColor=none;fillColor=none;align=center;verticalAlign=middle;whiteSpace=wrap;rounded=0;" parent="1" vertex="1">
          <mxGeometry x="440" y="-570" width="78.89" height="30" as="geometry" />
        </mxCell>
        <mxCell id="W41b2BSTpt1RBGvLtV3H-13" value="&lt;font style=&quot;font-size: 18px;&quot;&gt;[ &lt;/font&gt;&lt;font style=&quot;font-size: 14px;&quot;&gt;[ ... ]&lt;/font&gt;&lt;font style=&quot;font-size: 18px;&quot;&gt; &lt;/font&gt;&lt;font style=&quot;font-size: 14px;&quot;&gt;[...] ...&lt;/font&gt;&lt;font style=&quot;font-size: 18px;&quot;&gt; ]&lt;/font&gt;" style="rounded=0;whiteSpace=wrap;html=1;align=left;" parent="1" vertex="1">
          <mxGeometry x="521.11" y="-530" width="218.89" height="30" as="geometry" />
        </mxCell>
        <mxCell id="W41b2BSTpt1RBGvLtV3H-14" value="sample_id_ ..." style="text;html=1;strokeColor=none;fillColor=none;align=center;verticalAlign=middle;whiteSpace=wrap;rounded=0;" parent="1" vertex="1">
          <mxGeometry x="440" y="-530" width="78.89" height="30" as="geometry" />
        </mxCell>
        <mxCell id="W41b2BSTpt1RBGvLtV3H-15" value="X" style="text;html=1;strokeColor=none;fillColor=none;align=center;verticalAlign=middle;whiteSpace=wrap;rounded=0;fontSize=17;fontStyle=3" parent="1" vertex="1">
          <mxGeometry x="590.5500000000001" y="-670" width="80" height="30" as="geometry" />
        </mxCell>
        <mxCell id="W41b2BSTpt1RBGvLtV3H-16" value="y" style="text;html=1;strokeColor=none;fillColor=none;align=center;verticalAlign=middle;whiteSpace=wrap;rounded=0;fontSize=17;fontStyle=3" parent="1" vertex="1">
          <mxGeometry x="760" y="-670" width="40" height="30" as="geometry" />
        </mxCell>
        <mxCell id="W41b2BSTpt1RBGvLtV3H-17" value="&lt;font style=&quot;font-size: 14px;&quot;&gt;61.0&lt;/font&gt;" style="rounded=0;whiteSpace=wrap;html=1;align=center;" parent="1" vertex="1">
          <mxGeometry x="760" y="-610" width="39.45" height="30" as="geometry" />
        </mxCell>
        <mxCell id="W41b2BSTpt1RBGvLtV3H-18" value="&lt;font style=&quot;font-size: 14px;&quot;&gt;68.7&lt;/font&gt;" style="rounded=0;whiteSpace=wrap;html=1;align=center;" parent="1" vertex="1">
          <mxGeometry x="760" y="-570" width="39.45" height="30" as="geometry" />
        </mxCell>
        <mxCell id="W41b2BSTpt1RBGvLtV3H-19" value="&lt;font style=&quot;font-size: 14px;&quot;&gt;...&lt;/font&gt;" style="rounded=0;whiteSpace=wrap;html=1;align=center;" parent="1" vertex="1">
          <mxGeometry x="760" y="-530" width="39.45" height="30" as="geometry" />
        </mxCell>
        <mxCell id="W41b2BSTpt1RBGvLtV3H-21" value="" style="endArrow=classic;startArrow=classic;html=1;rounded=0;fillColor=#f8cecc;strokeColor=#b85450;" parent="1" edge="1">
          <mxGeometry width="50" height="50" relative="1" as="geometry">
            <mxPoint x="518.89" y="-620" as="sourcePoint" />
            <mxPoint x="740" y="-620" as="targetPoint" />
          </mxGeometry>
        </mxCell>
        <mxCell id="W41b2BSTpt1RBGvLtV3H-22" value="5000" style="edgeLabel;html=1;align=center;verticalAlign=middle;resizable=0;points=[];" parent="W41b2BSTpt1RBGvLtV3H-21" vertex="1" connectable="0">
          <mxGeometry x="0.1136" y="4" relative="1" as="geometry">
            <mxPoint x="1" as="offset" />
          </mxGeometry>
        </mxCell>
        <mxCell id="W41b2BSTpt1RBGvLtV3H-23" value="" style="endArrow=classic;startArrow=classic;html=1;rounded=0;fillColor=#f8cecc;strokeColor=#b85450;" parent="1" edge="1">
          <mxGeometry width="50" height="50" relative="1" as="geometry">
            <mxPoint x="820.1099999999999" y="-620.5" as="sourcePoint" />
            <mxPoint x="820" y="-500" as="targetPoint" />
          </mxGeometry>
        </mxCell>
        <mxCell id="W41b2BSTpt1RBGvLtV3H-24" value="1057" style="edgeLabel;html=1;align=center;verticalAlign=middle;resizable=0;points=[];" parent="W41b2BSTpt1RBGvLtV3H-23" vertex="1" connectable="0">
          <mxGeometry x="0.1136" y="4" relative="1" as="geometry">
            <mxPoint as="offset" />
          </mxGeometry>
        </mxCell>
        <mxCell id="W41b2BSTpt1RBGvLtV3H-25" value="&lt;i style=&quot;font-size: 20px;&quot;&gt;&lt;font style=&quot;font-size: 20px;&quot;&gt;Not yet good ...&lt;br&gt;To be more investigated and improved ...&lt;br&gt;&lt;/font&gt;&lt;/i&gt;" style="text;html=1;strokeColor=none;fillColor=none;align=left;verticalAlign=middle;whiteSpace=wrap;rounded=0;fontSize=20;fontColor=#CC0000;" parent="1" vertex="1">
          <mxGeometry x="870" y="-530" width="375" height="70" as="geometry" />
        </mxCell>
        <mxCell id="W41b2BSTpt1RBGvLtV3H-26" value="&lt;i style=&quot;font-size: 20px;&quot;&gt;&lt;font style=&quot;font-size: 20px;&quot;&gt;Not yet done ...&lt;/font&gt;&lt;/i&gt;" style="text;html=1;strokeColor=none;fillColor=none;align=center;verticalAlign=middle;whiteSpace=wrap;rounded=0;fontSize=20;fontColor=#CC0000;" parent="1" vertex="1">
          <mxGeometry x="280" y="-400" width="185" height="40" as="geometry" />
        </mxCell>
        <mxCell id="W41b2BSTpt1RBGvLtV3H-27" value="&lt;div style=&quot;font-size: 16px;&quot;&gt;&lt;font style=&quot;font-size: 16px;&quot;&gt;Loss:&amp;nbsp; 1.291150689125061&lt;span style=&quot;font-variant-ligatures: no-common-ligatures;&quot; class=&quot;s1&quot;&gt;&lt;/span&gt;&lt;br&gt;&lt;span style=&quot;font-variant-ligatures: no-common-ligatures;&quot; class=&quot;s1&quot;&gt;Loss:&lt;span class=&quot;Apple-converted-space&quot;&gt;&amp;nbsp; &lt;/span&gt;1.1544586420059204&lt;/span&gt;&lt;br&gt;&lt;span style=&quot;font-variant-ligatures: no-common-ligatures;&quot; class=&quot;s1&quot;&gt;Loss:&lt;span class=&quot;Apple-converted-space&quot;&gt;&amp;nbsp; &lt;/span&gt;1.1887892484664917&lt;/span&gt;&lt;br&gt;&lt;span style=&quot;font-variant-ligatures: no-common-ligatures;&quot; class=&quot;s1&quot;&gt;Loss:&lt;span class=&quot;Apple-converted-space&quot;&gt;&amp;nbsp; &lt;/span&gt;1.097224235534668&lt;/span&gt;&lt;br&gt;&lt;span style=&quot;font-variant-ligatures: no-common-ligatures;&quot; class=&quot;s1&quot;&gt;Loss:&lt;span class=&quot;Apple-converted-space&quot;&gt;&amp;nbsp; &lt;/span&gt;1.1141538619995117&lt;/span&gt;&lt;br&gt;&lt;span style=&quot;font-variant-ligatures: no-common-ligatures;&quot; class=&quot;s1&quot;&gt;Loss:&lt;span class=&quot;Apple-converted-space&quot;&gt;&amp;nbsp; &lt;/span&gt;1.131438136100769&lt;/span&gt;&lt;br&gt;&lt;span style=&quot;font-variant-ligatures: no-common-ligatures;&quot; class=&quot;s1&quot;&gt;Loss:&lt;span class=&quot;Apple-converted-space&quot;&gt;&amp;nbsp; &lt;/span&gt;1.092417955398559&lt;/span&gt;&lt;/font&gt;&lt;/div&gt;&lt;div style=&quot;font-size: 16px;&quot;&gt;&lt;span style=&quot;font-variant-ligatures: no-common-ligatures;&quot; class=&quot;s1&quot;&gt;&lt;font style=&quot;font-size: 16px;&quot;&gt;....&lt;/font&gt;&lt;/span&gt;&lt;/div&gt;" style="text;html=1;strokeColor=none;fillColor=none;align=left;verticalAlign=middle;whiteSpace=wrap;rounded=0;fontStyle=2;fontFamily=Courier New;" parent="1" vertex="1">
          <mxGeometry x="799.45" y="-460" width="310.55" height="170" as="geometry" />
        </mxCell>
        <mxCell id="W41b2BSTpt1RBGvLtV3H-28" value="&lt;i&gt;Loss sounds not &quot;reduced&quot; ... maybe something is wrong with the preprocessed data&lt;/i&gt;" style="text;html=1;strokeColor=none;fillColor=none;align=center;verticalAlign=middle;whiteSpace=wrap;rounded=0;fontSize=20;fontColor=#CC0000;" parent="1" vertex="1">
          <mxGeometry x="799.45" y="-270" width="330.55" height="70" as="geometry" />
        </mxCell>
      </root>
    </mxGraphModel>
  </diagram>
</mxfile>
